<svg width="28" height="28" viewBox="0 0 28 28" fill="none" xmlns="http://www.w3.org/2000/svg">
<path d="M14.0001 24.6667C8.13341 24.6667 3.33341 19.8667 3.33341 14C3.33341 8.13335 8.13341 3.33335 14.0001 3.33335C19.8667 3.33335 24.6667 8.13335 24.6667 14C24.6667 19.8667 19.8667 24.6667 14.0001 24.6667ZM14.0001 0.666687C6.66675 0.666687 0.666748 6.66669 0.666748 14C0.666748 21.3334 6.66675 27.3334 14.0001 27.3334C21.3334 27.3334 27.3334 21.3334 27.3334 14C27.3334 6.66669 21.3334 0.666687 14.0001 0.666687ZM12.6667 16.6667H15.3334V20.6667H19.3334V14H22.0001L14.0001 7.33335L6.00008 14H8.66675V20.6667H12.6667V16.6667Z" fill="#2671CB"/>
</svg>
