<svg width="31" height="26" viewBox="0 0 31 26" fill="none" xmlns="http://www.w3.org/2000/svg">
<path d="M0.75 19.5V24H12.75V21.165H3.6V19.5C3.6 18.54 8.295 16.35 12.75 16.35C14.19 16.365 15.615 16.56 16.995 16.92L19.275 14.64C17.175 13.935 15 13.545 12.75 13.5C8.745 13.5 0.75 15.495 0.75 19.5ZM12.75 0C9.435 0 6.75 2.685 6.75 6C6.75 9.315 9.435 12 12.75 12C16.065 12 18.75 9.315 18.75 6C18.75 2.685 16.065 0 12.75 0ZM12.75 9C11.1 9 9.75 7.665 9.75 6C9.75 4.335 11.1 3 12.75 3C14.4 3 15.75 4.35 15.75 6C15.75 7.65 14.415 9 12.75 9ZM30.3 14.025L28.8 15.525L25.725 12.525L27.225 11.025C27.3792 10.8738 27.5866 10.7892 27.8025 10.7892C28.0184 10.7892 28.2258 10.8738 28.38 11.025L30.3 12.945C30.615 13.26 30.615 13.785 30.3 14.1V14.025ZM15.75 22.41L24.84 13.32L27.915 16.32L18.915 25.425H15.75V22.41Z" fill="#114483"/>
</svg>
