<svg width="28" height="31" viewBox="0 0 28 31" fill="none" xmlns="http://www.w3.org/2000/svg">
<path d="M24.5 27.5H3.5V11H24.5V27.5ZM24.5 3.5H23V0.5H20V3.5H8V0.5H5V3.5H3.5C2.70435 3.5 1.94129 3.81607 1.37868 4.37868C0.81607 4.94129 0.5 5.70435 0.5 6.5V27.5C0.5 28.2956 0.81607 29.0587 1.37868 29.6213C1.94129 30.1839 2.70435 30.5 3.5 30.5H24.5C25.2956 30.5 26.0587 30.1839 26.6213 29.6213C27.1839 29.0587 27.5 28.2956 27.5 27.5V6.5C27.5 5.70435 27.1839 4.94129 26.6213 4.37868C26.0587 3.81607 25.2956 3.5 24.5 3.5ZM20.795 15.59L19.205 14L11.885 21.32L8.705 18.14L7.115 19.73L11.885 24.5L20.795 15.59Z" fill="#555555"/>
</svg>
