<svg width="20" height="20" viewBox="0 0 20 20" fill="none" xmlns="http://www.w3.org/2000/svg">
<path fill-rule="evenodd" clip-rule="evenodd" d="M13.609 0.674805H6.21805C3.16095 0.674805 0.674805 3.16095 0.674805 6.21805V18.2284C0.674805 18.4734 0.772141 18.7084 0.945401 18.8817C1.11866 19.055 1.35365 19.1523 1.59868 19.1523H13.609C16.6661 19.1523 19.1523 16.6661 19.1523 13.609V6.21805C19.1523 3.16095 16.6661 0.674805 13.609 0.674805ZM4.16675 14.6666V12.9166C4.16675 11.3591 7.27591 10.5833 8.83341 10.5833C9.70841 10.6008 10.5542 10.7525 11.3709 11.0266L10.4842 11.9133C9.94758 11.7733 9.39341 11.6975 8.83341 11.6916C7.10091 11.6916 5.27508 12.5433 5.27508 12.9166V13.5641H8.83341V14.6666H4.16675ZM6.50008 7.66665C6.50008 6.37748 7.54425 5.33331 8.83341 5.33331C10.1226 5.33331 11.1667 6.37748 11.1667 7.66665C11.1667 8.95581 10.1226 9.99998 8.83341 9.99998C7.54425 9.99998 6.50008 8.95581 6.50008 7.66665ZM7.66675 7.66665C7.66675 8.31415 8.19175 8.83331 8.83341 8.83331C9.48091 8.83331 10.0001 8.30831 10.0001 7.66665C10.0001 7.02498 9.47508 6.49998 8.83341 6.49998C8.19175 6.49998 7.66675 7.01915 7.66675 7.66665ZM15.0751 11.3708L15.6584 10.7875V10.8166C15.7809 10.6941 15.7809 10.49 15.6584 10.3675L14.9117 9.62081C14.8518 9.56203 14.7711 9.5291 14.6872 9.5291C14.6032 9.5291 14.5226 9.56203 14.4626 9.62081L13.8792 10.2041L15.0751 11.3708ZM13.5351 10.5133L10.0001 14.0483V15.2208H11.2309L14.7309 11.68L13.5351 10.5133Z" fill="#114483"/>
</svg>
