<svg width="19" height="19" viewBox="0 0 19 19" fill="none" xmlns="http://www.w3.org/2000/svg">
<path fill-rule="evenodd" clip-rule="evenodd" d="M5.54325 0H12.9342C15.9913 0 18.4775 2.48615 18.4775 5.54325V12.9342C18.4775 15.9913 15.9913 18.4775 12.9342 18.4775H0.923874C0.678848 18.4775 0.443857 18.3802 0.270596 18.2069C0.0973364 18.0336 0 17.7986 0 17.5536V5.54325C0 2.48615 2.48615 0 5.54325 0ZM6.10722 10.4439L8.16556 12.5884L11.8944 8.70825L11.1083 7.88904L8.16778 10.9534L6.89333 9.62472L6.10722 10.4439ZM14 13.1673V5.64098C14 5.33389 13.8829 5.03938 13.6746 4.82223C13.4662 4.60508 13.1836 4.48309 12.8889 4.48309H12.3333V3.3252H11.2222V4.48309H6.77778V3.3252H5.66667V4.48309H5.11111C4.81643 4.48309 4.53381 4.60508 4.32544 4.82223C4.11706 5.03938 4 5.33389 4 5.64098V13.1673C4 13.4744 4.11706 13.7689 4.32544 13.9861C4.53381 14.2032 4.81643 14.3252 5.11111 14.3252H12.8889C13.1836 14.3252 13.4662 14.2032 13.6746 13.9861C13.8829 13.7689 14 13.4744 14 13.1673ZM5.11111 6.79888H12.8889V13.1673H5.11111V6.79888Z" fill="#9D9D9D"/>
</svg>
