<svg width="86" height="25" viewBox="0 0 86 25" fill="none" xmlns="http://www.w3.org/2000/svg">
<g clip-path="url(#clip0)">
<g clip-path="url(#clip1)">
<path d="M16.125 11.5833H10.875C10.6687 11.5833 10.5 11.7521 10.5 11.9583V12.7083C10.5 12.9146 10.6687 13.0833 10.875 13.0833H16.125C16.3313 13.0833 16.5 12.9146 16.5 12.7083V11.9583C16.5 11.7521 16.3313 11.5833 16.125 11.5833ZM16.125 16.0833H10.875C10.6687 16.0833 10.5 16.2521 10.5 16.4583V17.2083C10.5 17.4146 10.6687 17.5833 10.875 17.5833H16.125C16.3313 17.5833 16.5 17.4146 16.5 17.2083V16.4583C16.5 16.2521 16.3313 16.0833 16.125 16.0833ZM8.25 11.2083C7.62656 11.2083 7.125 11.7099 7.125 12.3333C7.125 12.9568 7.62656 13.4583 8.25 13.4583C8.87344 13.4583 9.375 12.9568 9.375 12.3333C9.375 11.7099 8.87344 11.2083 8.25 11.2083ZM8.25 15.7083C7.62656 15.7083 7.125 16.2099 7.125 16.8333C7.125 17.4568 7.62656 17.9583 8.25 17.9583C8.87344 17.9583 9.375 17.4568 9.375 16.8333C9.375 16.2099 8.87344 15.7083 8.25 15.7083ZM18.75 3.33331H14.5969C14.6156 3.21144 14.625 3.08488 14.625 2.95831C14.625 1.50988 13.4484 0.333313 12 0.333313C10.5516 0.333313 9.375 1.50988 9.375 2.95831C9.375 3.08488 9.38438 3.21144 9.40313 3.33331H5.25C4.00781 3.33331 3 4.34113 3 5.58331V22.0833C3 23.3255 4.00781 24.3333 5.25 24.3333H18.75C19.9922 24.3333 21 23.3255 21 22.0833V5.58331C21 4.34113 19.9922 3.33331 18.75 3.33331ZM12 1.83331C12.6234 1.83331 13.125 2.33488 13.125 2.95831C13.125 3.58175 12.6234 4.08331 12 4.08331C11.3766 4.08331 10.875 3.58175 10.875 2.95831C10.875 2.33488 11.3766 1.83331 12 1.83331ZM19.5 22.0833C19.5 22.4958 19.1625 22.8333 18.75 22.8333H5.25C4.8375 22.8333 4.5 22.4958 4.5 22.0833V5.58331C4.5 5.17081 4.8375 4.83331 5.25 4.83331H7.5V5.77081C7.5 6.08019 7.75313 6.33331 8.0625 6.33331H15.9375C16.2469 6.33331 16.5 6.08019 16.5 5.77081V4.83331H18.75C19.1625 4.83331 19.5 5.17081 19.5 5.58331V22.0833Z" fill="white"/>
</g>
<path d="M52.543 13.1819H47.1729V18.8333H45.4854V6.03644H53.4131V7.42511H47.1729V11.8021H52.543V13.1819ZM54.5557 13.9905C54.5557 13.0589 54.7373 12.221 55.1006 11.4769C55.4697 10.7327 55.9795 10.1585 56.6299 9.75421C57.2861 9.34991 58.0332 9.14777 58.8711 9.14777C60.166 9.14777 61.2119 9.59601 62.0088 10.4925C62.8115 11.389 63.2129 12.5814 63.2129 14.0696V14.1839C63.2129 15.1097 63.0342 15.9417 62.6768 16.68C62.3252 17.4124 61.8184 17.9837 61.1562 18.3939C60.5 18.804 59.7441 19.0091 58.8887 19.0091C57.5996 19.0091 56.5537 18.5609 55.751 17.6644C54.9541 16.7679 54.5557 15.5814 54.5557 14.1048V13.9905ZM56.1904 14.1839C56.1904 15.2386 56.4336 16.0853 56.9199 16.7239C57.4121 17.3626 58.0684 17.6819 58.8887 17.6819C59.7148 17.6819 60.3711 17.3597 60.8574 16.7151C61.3438 16.0648 61.5869 15.1566 61.5869 13.9905C61.5869 12.9476 61.3379 12.1038 60.8398 11.4593C60.3477 10.8089 59.6914 10.4837 58.8711 10.4837C58.0684 10.4837 57.4209 10.803 56.9287 11.4417C56.4365 12.0804 56.1904 12.9944 56.1904 14.1839ZM69.8486 10.7825C69.6025 10.7415 69.3359 10.721 69.0488 10.721C67.9824 10.721 67.2588 11.1751 66.8779 12.0833V18.8333H65.252V9.32355H66.834L66.8604 10.4222C67.3936 9.57257 68.1494 9.14777 69.1279 9.14777C69.4443 9.14777 69.6846 9.18878 69.8486 9.27081V10.7825ZM72.8809 9.32355L72.9248 10.3782C73.6221 9.55792 74.5625 9.14777 75.7461 9.14777C77.0762 9.14777 77.9814 9.65753 78.4619 10.6771C78.7783 10.22 79.1885 9.85089 79.6924 9.56964C80.2021 9.28839 80.8027 9.14777 81.4941 9.14777C83.5801 9.14777 84.6406 10.2523 84.6758 12.4612V18.8333H83.0498V12.5579C83.0498 11.8782 82.8945 11.3714 82.584 11.0374C82.2734 10.6976 81.752 10.5276 81.0195 10.5276C80.416 10.5276 79.915 10.7093 79.5166 11.0726C79.1182 11.43 78.8867 11.9134 78.8223 12.5228V18.8333H77.1875V12.6019C77.1875 11.2191 76.5107 10.5276 75.1572 10.5276C74.0908 10.5276 73.3613 10.9818 72.9688 11.89V18.8333H71.3428V9.32355H72.8809Z" fill="white"/>
</g>
<defs>
<clipPath id="clip0">
<rect width="86" height="24" fill="white" transform="translate(0 0.333313)"/>
</clipPath>
<clipPath id="clip1">
<rect width="24" height="24" fill="white" transform="translate(0 0.333313)"/>
</clipPath>
</defs>
</svg>
