<svg width="98" height="25" viewBox="0 0 98 25" fill="none" xmlns="http://www.w3.org/2000/svg">
<g clip-path="url(#clip0)">
<path d="M12 4.83331C9.51868 4.83331 7.5 6.85199 7.5 9.33332C7.5 11.8146 9.51868 13.8333 12 13.8333C14.4813 13.8333 16.5 11.8146 16.5 9.33332C16.5 6.85199 14.4813 4.83331 12 4.83331ZM12 12.3333C10.3458 12.3333 9 10.9875 9 9.33332C9 7.6791 10.3458 6.33332 12 6.33332C13.6542 6.33332 15 7.6791 15 9.33332C15 10.9875 13.6542 12.3333 12 12.3333ZM12 0.333313C7.02942 0.333313 3 4.36274 3 9.33332C3 12.9621 4.26422 13.9754 11.0751 23.8491C11.522 24.4947 12.478 24.4948 12.925 23.8491C19.7358 13.9754 21 12.9621 21 9.33332C21 4.36274 16.9706 0.333313 12 0.333313ZM12 22.5488C5.47055 13.1062 4.5 12.3565 4.5 9.33332C4.5 7.32997 5.28014 5.44658 6.69671 4.03002C8.11327 2.61345 9.99666 1.83331 12 1.83331C14.0034 1.83331 15.8867 2.61345 17.3033 4.03002C18.7199 5.44658 19.5 7.32997 19.5 9.33332C19.5 12.3563 18.5301 13.1054 12 22.5488Z" fill="white"/>
<path d="M47.1729 13.8235V18.8333H45.4854V6.03644H50.2051C51.6055 6.03644 52.7012 6.39386 53.4922 7.1087C54.2891 7.82355 54.6875 8.76984 54.6875 9.94757C54.6875 11.1898 54.2979 12.1478 53.5186 12.8216C52.7451 13.4896 51.6348 13.8235 50.1875 13.8235H47.1729ZM47.1729 12.4437H50.2051C51.1074 12.4437 51.7988 12.2327 52.2793 11.8109C52.7598 11.3831 53 10.7679 53 9.96515C53 9.20343 52.7598 8.59406 52.2793 8.13702C51.7988 7.67999 51.1396 7.44269 50.3018 7.42511H47.1729V12.4437ZM58.3525 18.8333H56.7266V5.33331H58.3525V18.8333ZM66.834 18.8333C66.7402 18.6458 66.6641 18.3118 66.6055 17.8314C65.8496 18.6165 64.9473 19.0091 63.8984 19.0091C62.9609 19.0091 62.1904 18.7454 61.5869 18.2181C60.9893 17.6849 60.6904 17.011 60.6904 16.1966C60.6904 15.2064 61.0654 14.4388 61.8154 13.8939C62.5713 13.3431 63.6318 13.0677 64.9971 13.0677H66.5791V12.3206C66.5791 11.7523 66.4092 11.3011 66.0693 10.9671C65.7295 10.6273 65.2285 10.4573 64.5664 10.4573C63.9863 10.4573 63.5 10.6038 63.1074 10.8968C62.7148 11.1898 62.5186 11.5443 62.5186 11.9603H60.8838C60.8838 11.4857 61.0508 11.0286 61.3848 10.5892C61.7246 10.1439 62.1816 9.7923 62.7559 9.53448C63.3359 9.27667 63.9717 9.14777 64.6631 9.14777C65.7588 9.14777 66.6172 9.42316 67.2383 9.97394C67.8594 10.5189 68.1816 11.2718 68.2051 12.2327V16.6097C68.2051 17.4827 68.3164 18.1771 68.5391 18.6927V18.8333H66.834ZM64.1357 17.5941C64.6455 17.5941 65.1289 17.4622 65.5859 17.1985C66.043 16.9349 66.374 16.5921 66.5791 16.1702V14.2191H65.3047C63.3125 14.2191 62.3164 14.8021 62.3164 15.9681C62.3164 16.4778 62.4863 16.8763 62.8262 17.1634C63.166 17.4505 63.6025 17.5941 64.1357 17.5941ZM74.5684 17.6819C75.1484 17.6819 75.6553 17.5062 76.0889 17.1546C76.5225 16.803 76.7627 16.3636 76.8096 15.8362H78.3477C78.3184 16.3812 78.1309 16.8997 77.7852 17.3919C77.4395 17.8841 76.9766 18.2767 76.3965 18.5696C75.8223 18.8626 75.2129 19.0091 74.5684 19.0091C73.2734 19.0091 72.2422 18.5784 71.4746 17.7171C70.7129 16.8499 70.332 15.6663 70.332 14.1663V13.8939C70.332 12.9681 70.502 12.1448 70.8418 11.4241C71.1816 10.7034 71.668 10.1439 72.3008 9.74542C72.9395 9.34698 73.6924 9.14777 74.5596 9.14777C75.626 9.14777 76.5107 9.4671 77.2139 10.1058C77.9229 10.7444 78.3008 11.5735 78.3477 12.5931H76.8096C76.7627 11.9778 76.5283 11.4739 76.1064 11.0814C75.6904 10.6829 75.1748 10.4837 74.5596 10.4837C73.7334 10.4837 73.0918 10.7825 72.6348 11.3802C72.1836 11.972 71.958 12.8304 71.958 13.9554V14.263C71.958 15.3587 72.1836 16.2025 72.6348 16.7943C73.0859 17.386 73.7305 17.6819 74.5684 17.6819ZM84.1221 19.0091C82.833 19.0091 81.7842 18.5872 80.9756 17.7435C80.167 16.8939 79.7627 15.7601 79.7627 14.3421V14.0433C79.7627 13.0999 79.9414 12.2591 80.2988 11.5208C80.6621 10.7767 81.166 10.1966 81.8105 9.78058C82.4609 9.3587 83.1641 9.14777 83.9199 9.14777C85.1562 9.14777 86.1172 9.55499 86.8027 10.3694C87.4883 11.1839 87.8311 12.3499 87.8311 13.8675V14.5443H81.3887C81.4121 15.4818 81.6846 16.2405 82.2061 16.8206C82.7334 17.3948 83.4014 17.6819 84.21 17.6819C84.7842 17.6819 85.2705 17.5648 85.6689 17.3304C86.0674 17.096 86.416 16.7855 86.7148 16.3987L87.708 17.1722C86.9111 18.3968 85.7158 19.0091 84.1221 19.0091ZM83.9199 10.4837C83.2637 10.4837 82.7129 10.7239 82.2676 11.2044C81.8223 11.679 81.5469 12.347 81.4414 13.2083H86.2051V13.0853C86.1582 12.2591 85.9355 11.6204 85.5371 11.1693C85.1387 10.7122 84.5996 10.4837 83.9199 10.4837ZM95.2578 16.3109C95.2578 15.8714 95.0908 15.5316 94.7568 15.2913C94.4287 15.0452 93.8516 14.8343 93.0254 14.6585C92.2051 14.4827 91.5518 14.2718 91.0654 14.0257C90.585 13.7796 90.2275 13.4866 89.9932 13.1468C89.7646 12.8069 89.6504 12.4026 89.6504 11.9339C89.6504 11.1546 89.9785 10.4954 90.6348 9.95636C91.2969 9.4173 92.1406 9.14777 93.166 9.14777C94.2441 9.14777 95.1172 9.42609 95.7852 9.98273C96.459 10.5394 96.7959 11.2513 96.7959 12.1185H95.1611C95.1611 11.6732 94.9707 11.2894 94.5898 10.9671C94.2148 10.6448 93.7402 10.4837 93.166 10.4837C92.5742 10.4837 92.1113 10.6126 91.7773 10.8704C91.4434 11.1282 91.2764 11.4651 91.2764 11.8812C91.2764 12.2737 91.4316 12.5696 91.7422 12.7689C92.0527 12.9681 92.6123 13.1585 93.4209 13.3401C94.2354 13.5218 94.8945 13.7386 95.3984 13.9905C95.9023 14.2425 96.2744 14.5472 96.5146 14.9046C96.7607 15.2562 96.8838 15.6868 96.8838 16.1966C96.8838 17.0462 96.5439 17.7288 95.8643 18.2444C95.1846 18.7542 94.3027 19.0091 93.2188 19.0091C92.457 19.0091 91.7832 18.8743 91.1973 18.6048C90.6113 18.3353 90.1514 17.9603 89.8174 17.4798C89.4893 16.9935 89.3252 16.4691 89.3252 15.9066H90.9512C90.9805 16.4515 91.1973 16.8851 91.6016 17.2073C92.0117 17.5237 92.5508 17.6819 93.2188 17.6819C93.834 17.6819 94.3262 17.5589 94.6953 17.3128C95.0703 17.0609 95.2578 16.7269 95.2578 16.3109Z" fill="white"/>
</g>
<defs>
<clipPath id="clip0">
<rect width="98" height="24" fill="white" transform="translate(0 0.333313)"/>
</clipPath>
</defs>
</svg>
