<svg width="127" height="25" viewBox="0 0 127 25" fill="none" xmlns="http://www.w3.org/2000/svg">
<g clip-path="url(#clip0)">
<path d="M21.75 3.33333H2.25C1.00781 3.33333 0 4.34114 0 5.58333V19.0833C0 20.3255 1.00781 21.3333 2.25 21.3333H21.75C22.9922 21.3333 24 20.3255 24 19.0833V5.58333C24 4.34114 22.9922 3.33333 21.75 3.33333ZM2.25 4.83333H21.75C22.1625 4.83333 22.5 5.17083 22.5 5.58333V7.52395C21.4734 8.39114 20.0063 9.58645 15.4406 13.2099C14.6484 13.838 13.0875 15.3521 12 15.3333C10.9125 15.3521 9.34688 13.838 8.55938 13.2099C3.99375 9.58645 2.52656 8.39114 1.5 7.52395V5.58333C1.5 5.17083 1.8375 4.83333 2.25 4.83333ZM21.75 19.8333H2.25C1.8375 19.8333 1.5 19.4958 1.5 19.0833V9.47395C2.56875 10.3505 4.25625 11.7052 7.62656 14.3818C8.5875 15.1505 10.2844 16.8427 12 16.8333C13.7063 16.8474 15.3891 15.1693 16.3734 14.3818C19.7437 11.7052 21.4312 10.3505 22.5 9.47395V19.0833C22.5 19.4958 22.1625 19.8333 21.75 19.8333Z" fill="white"/>
<path d="M47.665 6.03645L51.8486 16.4779L56.0322 6.03645H58.2207V18.8333H56.5332V13.8499L56.6914 8.47102L52.4902 18.8333H51.1982L47.0059 8.49739L47.1729 13.8499V18.8333H45.4854V6.03645H47.665ZM64.8916 19.0091C63.6025 19.0091 62.5537 18.5872 61.7451 17.7435C60.9365 16.8939 60.5322 15.7601 60.5322 14.3421V14.0433C60.5322 13.0999 60.7109 12.2591 61.0684 11.5208C61.4316 10.7767 61.9355 10.1966 62.5801 9.78059C63.2305 9.35872 63.9336 9.14778 64.6895 9.14778C65.9258 9.14778 66.8867 9.55501 67.5723 10.3695C68.2578 11.1839 68.6006 12.3499 68.6006 13.8675V14.5443H62.1582C62.1816 15.4818 62.4541 16.2406 62.9756 16.8206C63.5029 17.3949 64.1709 17.682 64.9795 17.682C65.5537 17.682 66.04 17.5648 66.4385 17.3304C66.8369 17.096 67.1855 16.7855 67.4844 16.3988L68.4775 17.1722C67.6807 18.3968 66.4854 19.0091 64.8916 19.0091ZM64.6895 10.4837C64.0332 10.4837 63.4824 10.724 63.0371 11.2044C62.5918 11.679 62.3164 12.347 62.2109 13.2083H66.9746V13.0853C66.9277 12.2591 66.7051 11.6204 66.3066 11.1693C65.9082 10.7122 65.3691 10.4837 64.6895 10.4837ZM76.0273 16.3109C76.0273 15.8714 75.8604 15.5316 75.5264 15.2913C75.1982 15.0452 74.6211 14.8343 73.7949 14.6585C72.9746 14.4827 72.3213 14.2718 71.835 14.0257C71.3545 13.7796 70.9971 13.4866 70.7627 13.1468C70.5342 12.807 70.4199 12.4027 70.4199 11.9339C70.4199 11.1546 70.748 10.4954 71.4043 9.95638C72.0664 9.41731 72.9102 9.14778 73.9355 9.14778C75.0137 9.14778 75.8867 9.4261 76.5547 9.98274C77.2285 10.5394 77.5654 11.2513 77.5654 12.1185H75.9307C75.9307 11.6732 75.7402 11.2894 75.3594 10.9671C74.9844 10.6449 74.5098 10.4837 73.9355 10.4837C73.3438 10.4837 72.8809 10.6126 72.5469 10.8704C72.2129 11.1283 72.0459 11.4652 72.0459 11.8812C72.0459 12.2738 72.2012 12.5697 72.5117 12.7689C72.8223 12.9681 73.3818 13.1585 74.1904 13.3402C75.0049 13.5218 75.6641 13.7386 76.168 13.9906C76.6719 14.2425 77.0439 14.5472 77.2842 14.9046C77.5303 15.2562 77.6533 15.6868 77.6533 16.1966C77.6533 17.0462 77.3135 17.7288 76.6338 18.2445C75.9541 18.7542 75.0723 19.0091 73.9883 19.0091C73.2266 19.0091 72.5527 18.8743 71.9668 18.6048C71.3809 18.3353 70.9209 17.9603 70.5869 17.4798C70.2588 16.9935 70.0947 16.4691 70.0947 15.9066H71.7207C71.75 16.4515 71.9668 16.8851 72.3711 17.2074C72.7812 17.5238 73.3203 17.682 73.9883 17.682C74.6035 17.682 75.0957 17.5589 75.4648 17.3128C75.8398 17.0609 76.0273 16.7269 76.0273 16.3109ZM85.3086 16.3109C85.3086 15.8714 85.1416 15.5316 84.8076 15.2913C84.4795 15.0452 83.9023 14.8343 83.0762 14.6585C82.2559 14.4827 81.6025 14.2718 81.1162 14.0257C80.6357 13.7796 80.2783 13.4866 80.0439 13.1468C79.8154 12.807 79.7012 12.4027 79.7012 11.9339C79.7012 11.1546 80.0293 10.4954 80.6855 9.95638C81.3477 9.41731 82.1914 9.14778 83.2168 9.14778C84.2949 9.14778 85.168 9.4261 85.8359 9.98274C86.5098 10.5394 86.8467 11.2513 86.8467 12.1185H85.2119C85.2119 11.6732 85.0215 11.2894 84.6406 10.9671C84.2656 10.6449 83.791 10.4837 83.2168 10.4837C82.625 10.4837 82.1621 10.6126 81.8281 10.8704C81.4941 11.1283 81.3271 11.4652 81.3271 11.8812C81.3271 12.2738 81.4824 12.5697 81.793 12.7689C82.1035 12.9681 82.6631 13.1585 83.4717 13.3402C84.2861 13.5218 84.9453 13.7386 85.4492 13.9906C85.9531 14.2425 86.3252 14.5472 86.5654 14.9046C86.8115 15.2562 86.9346 15.6868 86.9346 16.1966C86.9346 17.0462 86.5947 17.7288 85.915 18.2445C85.2354 18.7542 84.3535 19.0091 83.2695 19.0091C82.5078 19.0091 81.834 18.8743 81.248 18.6048C80.6621 18.3353 80.2021 17.9603 79.8682 17.4798C79.54 16.9935 79.376 16.4691 79.376 15.9066H81.002C81.0312 16.4515 81.248 16.8851 81.6523 17.2074C82.0625 17.5238 82.6016 17.682 83.2695 17.682C83.8848 17.682 84.377 17.5589 84.7461 17.3128C85.1211 17.0609 85.3086 16.7269 85.3086 16.3109ZM94.9238 18.8333C94.8301 18.6458 94.7539 18.3118 94.6953 17.8314C93.9395 18.6165 93.0371 19.0091 91.9883 19.0091C91.0508 19.0091 90.2803 18.7454 89.6768 18.2181C89.0791 17.6849 88.7803 17.0111 88.7803 16.1966C88.7803 15.2064 89.1553 14.4388 89.9053 13.8939C90.6611 13.3431 91.7217 13.0677 93.0869 13.0677H94.6689V12.3206C94.6689 11.7523 94.499 11.3011 94.1592 10.9671C93.8193 10.6273 93.3184 10.4574 92.6562 10.4574C92.0762 10.4574 91.5898 10.6038 91.1973 10.8968C90.8047 11.1898 90.6084 11.5443 90.6084 11.9603H88.9736C88.9736 11.4857 89.1406 11.0286 89.4746 10.5892C89.8145 10.1439 90.2715 9.79231 90.8457 9.5345C91.4258 9.27669 92.0615 9.14778 92.7529 9.14778C93.8486 9.14778 94.707 9.42317 95.3281 9.97395C95.9492 10.5189 96.2715 11.2718 96.2949 12.2327V16.6097C96.2949 17.4827 96.4062 18.1771 96.6289 18.6927V18.8333H94.9238ZM92.2256 17.5941C92.7354 17.5941 93.2188 17.4622 93.6758 17.1986C94.1328 16.9349 94.4639 16.5921 94.6689 16.1702V14.2191H93.3945C91.4023 14.2191 90.4062 14.8021 90.4062 15.9681C90.4062 16.4779 90.5762 16.8763 90.916 17.1634C91.2559 17.4505 91.6924 17.5941 92.2256 17.5941ZM98.457 13.9993C98.457 12.5169 98.7998 11.3392 99.4854 10.4661C100.171 9.58723 101.079 9.14778 102.21 9.14778C103.37 9.14778 104.275 9.55794 104.926 10.3783L105.005 9.32356H106.49V18.6048C106.49 19.8353 106.124 20.805 105.392 21.514C104.665 22.223 103.687 22.5775 102.456 22.5775C101.771 22.5775 101.1 22.431 100.443 22.138C99.7871 21.845 99.2861 21.4437 98.9404 20.9339L99.7842 19.9583C100.481 20.8197 101.334 21.2503 102.342 21.2503C103.133 21.2503 103.748 21.0277 104.188 20.5824C104.633 20.137 104.855 19.5101 104.855 18.7015V17.8841C104.205 18.6341 103.317 19.0091 102.192 19.0091C101.079 19.0091 100.177 18.5609 99.4854 17.6644C98.7998 16.7679 98.457 15.5462 98.457 13.9993ZM100.092 14.1839C100.092 15.2562 100.312 16.0999 100.751 16.7152C101.19 17.3245 101.806 17.6292 102.597 17.6292C103.622 17.6292 104.375 17.1634 104.855 16.2318V11.89C104.357 10.9818 103.61 10.5277 102.614 10.5277C101.823 10.5277 101.205 10.8353 100.76 11.4505C100.314 12.0658 100.092 12.9769 100.092 14.1839ZM112.897 19.0091C111.608 19.0091 110.56 18.5872 109.751 17.7435C108.942 16.8939 108.538 15.7601 108.538 14.3421V14.0433C108.538 13.0999 108.717 12.2591 109.074 11.5208C109.438 10.7767 109.941 10.1966 110.586 9.78059C111.236 9.35872 111.939 9.14778 112.695 9.14778C113.932 9.14778 114.893 9.55501 115.578 10.3695C116.264 11.1839 116.606 12.3499 116.606 13.8675V14.5443H110.164C110.188 15.4818 110.46 16.2406 110.981 16.8206C111.509 17.3949 112.177 17.682 112.985 17.682C113.56 17.682 114.046 17.5648 114.444 17.3304C114.843 17.096 115.191 16.7855 115.49 16.3988L116.483 17.1722C115.687 18.3968 114.491 19.0091 112.897 19.0091ZM112.695 10.4837C112.039 10.4837 111.488 10.724 111.043 11.2044C110.598 11.679 110.322 12.347 110.217 13.2083H114.98V13.0853C114.934 12.2591 114.711 11.6204 114.312 11.1693C113.914 10.7122 113.375 10.4837 112.695 10.4837ZM124.033 16.3109C124.033 15.8714 123.866 15.5316 123.532 15.2913C123.204 15.0452 122.627 14.8343 121.801 14.6585C120.98 14.4827 120.327 14.2718 119.841 14.0257C119.36 13.7796 119.003 13.4866 118.769 13.1468C118.54 12.807 118.426 12.4027 118.426 11.9339C118.426 11.1546 118.754 10.4954 119.41 9.95638C120.072 9.41731 120.916 9.14778 121.941 9.14778C123.02 9.14778 123.893 9.4261 124.561 9.98274C125.234 10.5394 125.571 11.2513 125.571 12.1185H123.937C123.937 11.6732 123.746 11.2894 123.365 10.9671C122.99 10.6449 122.516 10.4837 121.941 10.4837C121.35 10.4837 120.887 10.6126 120.553 10.8704C120.219 11.1283 120.052 11.4652 120.052 11.8812C120.052 12.2738 120.207 12.5697 120.518 12.7689C120.828 12.9681 121.388 13.1585 122.196 13.3402C123.011 13.5218 123.67 13.7386 124.174 13.9906C124.678 14.2425 125.05 14.5472 125.29 14.9046C125.536 15.2562 125.659 15.6868 125.659 16.1966C125.659 17.0462 125.319 17.7288 124.64 18.2445C123.96 18.7542 123.078 19.0091 121.994 19.0091C121.232 19.0091 120.559 18.8743 119.973 18.6048C119.387 18.3353 118.927 17.9603 118.593 17.4798C118.265 16.9935 118.101 16.4691 118.101 15.9066H119.727C119.756 16.4515 119.973 16.8851 120.377 17.2074C120.787 17.5238 121.326 17.682 121.994 17.682C122.609 17.682 123.102 17.5589 123.471 17.3128C123.846 17.0609 124.033 16.7269 124.033 16.3109Z" fill="white"/>
</g>
<defs>
<clipPath id="clip0">
<rect width="127" height="24" fill="white" transform="translate(0 0.333328)"/>
</clipPath>
</defs>
</svg>
