<svg width="118" height="25" viewBox="0 0 118 25" fill="none" xmlns="http://www.w3.org/2000/svg">
<g clip-path="url(#clip0)">
<g clip-path="url(#clip1)">
<path d="M20.75 3.33331H18.5V0.895813C18.5 0.586438 18.2469 0.333313 17.9375 0.333313H17.5625C17.2531 0.333313 17 0.586438 17 0.895813V3.33331H8V0.895813C8 0.586438 7.74687 0.333313 7.4375 0.333313H7.0625C6.75313 0.333313 6.5 0.586438 6.5 0.895813V3.33331H4.25C3.00781 3.33331 2 4.34113 2 5.58331V22.0833C2 23.3255 3.00781 24.3333 4.25 24.3333H20.75C21.9922 24.3333 23 23.3255 23 22.0833V5.58331C23 4.34113 21.9922 3.33331 20.75 3.33331ZM4.25 4.83331H20.75C21.1625 4.83331 21.5 5.17081 21.5 5.58331V7.83331H3.5V5.58331C3.5 5.17081 3.8375 4.83331 4.25 4.83331ZM20.75 22.8333H4.25C3.8375 22.8333 3.5 22.4958 3.5 22.0833V9.33331H21.5V22.0833C21.5 22.4958 21.1625 22.8333 20.75 22.8333ZM8.9375 15.3333H7.0625C6.75313 15.3333 6.5 15.0802 6.5 14.7708V12.8958C6.5 12.5864 6.75313 12.3333 7.0625 12.3333H8.9375C9.24687 12.3333 9.5 12.5864 9.5 12.8958V14.7708C9.5 15.0802 9.24687 15.3333 8.9375 15.3333ZM13.4375 15.3333H11.5625C11.2531 15.3333 11 15.0802 11 14.7708V12.8958C11 12.5864 11.2531 12.3333 11.5625 12.3333H13.4375C13.7469 12.3333 14 12.5864 14 12.8958V14.7708C14 15.0802 13.7469 15.3333 13.4375 15.3333ZM17.9375 15.3333H16.0625C15.7531 15.3333 15.5 15.0802 15.5 14.7708V12.8958C15.5 12.5864 15.7531 12.3333 16.0625 12.3333H17.9375C18.2469 12.3333 18.5 12.5864 18.5 12.8958V14.7708C18.5 15.0802 18.2469 15.3333 17.9375 15.3333ZM13.4375 19.8333H11.5625C11.2531 19.8333 11 19.5802 11 19.2708V17.3958C11 17.0864 11.2531 16.8333 11.5625 16.8333H13.4375C13.7469 16.8333 14 17.0864 14 17.3958V19.2708C14 19.5802 13.7469 19.8333 13.4375 19.8333ZM8.9375 19.8333H7.0625C6.75313 19.8333 6.5 19.5802 6.5 19.2708V17.3958C6.5 17.0864 6.75313 16.8333 7.0625 16.8333H8.9375C9.24687 16.8333 9.5 17.0864 9.5 17.3958V19.2708C9.5 19.5802 9.24687 19.8333 8.9375 19.8333ZM17.9375 19.8333H16.0625C15.7531 19.8333 15.5 19.5802 15.5 19.2708V17.3958C15.5 17.0864 15.7531 16.8333 16.0625 16.8333H17.9375C18.2469 16.8333 18.5 17.0864 18.5 17.3958V19.2708C18.5 19.5802 18.2469 19.8333 17.9375 19.8333Z" fill="white"/>
</g>
<path d="M49.2559 13.1292C47.8086 12.7132 46.7539 12.2034 46.0918 11.5999C45.4355 10.9905 45.1074 10.2405 45.1074 9.34991C45.1074 8.3421 45.5088 7.51007 46.3115 6.85382C47.1201 6.19171 48.1689 5.86066 49.458 5.86066C50.3369 5.86066 51.1191 6.03058 51.8047 6.37042C52.4961 6.71027 53.0293 7.17902 53.4043 7.77667C53.7852 8.37433 53.9756 9.02765 53.9756 9.73663H52.2793C52.2793 8.9632 52.0332 8.35675 51.541 7.9173C51.0488 7.47198 50.3545 7.24933 49.458 7.24933C48.626 7.24933 47.9756 7.4339 47.5068 7.80304C47.0439 8.16632 46.8125 8.67316 46.8125 9.32355C46.8125 9.84503 47.0322 10.2874 47.4717 10.6507C47.917 11.0081 48.6699 11.3362 49.7305 11.6351C50.7969 11.9339 51.6289 12.265 52.2266 12.6282C52.8301 12.9857 53.2754 13.4046 53.5625 13.8851C53.8555 14.3655 54.002 14.931 54.002 15.5814C54.002 16.6185 53.5977 17.4505 52.7891 18.0775C51.9805 18.6985 50.8994 19.0091 49.5459 19.0091C48.667 19.0091 47.8467 18.8421 47.085 18.5081C46.3232 18.1683 45.7344 17.7054 45.3184 17.1194C44.9082 16.5335 44.7031 15.8685 44.7031 15.1243H46.3994C46.3994 15.8978 46.6836 16.5101 47.252 16.9612C47.8262 17.4066 48.5908 17.6292 49.5459 17.6292C50.4365 17.6292 51.1191 17.4476 51.5938 17.0843C52.0684 16.721 52.3057 16.2259 52.3057 15.5989C52.3057 14.972 52.0859 14.4886 51.6465 14.1487C51.207 13.803 50.4102 13.4632 49.2559 13.1292ZM59.7324 17.6819C60.3125 17.6819 60.8193 17.5062 61.2529 17.1546C61.6865 16.803 61.9268 16.3636 61.9736 15.8362H63.5117C63.4824 16.3812 63.2949 16.8997 62.9492 17.3919C62.6035 17.8841 62.1406 18.2767 61.5605 18.5696C60.9863 18.8626 60.377 19.0091 59.7324 19.0091C58.4375 19.0091 57.4062 18.5784 56.6387 17.7171C55.877 16.8499 55.4961 15.6663 55.4961 14.1663V13.8939C55.4961 12.9681 55.666 12.1448 56.0059 11.4241C56.3457 10.7034 56.832 10.1439 57.4648 9.74542C58.1035 9.34698 58.8564 9.14777 59.7236 9.14777C60.79 9.14777 61.6748 9.4671 62.3779 10.1058C63.0869 10.7444 63.4648 11.5735 63.5117 12.5931H61.9736C61.9268 11.9778 61.6924 11.4739 61.2705 11.0814C60.8545 10.6829 60.3389 10.4837 59.7236 10.4837C58.8975 10.4837 58.2559 10.7825 57.7988 11.3802C57.3477 11.972 57.1221 12.8304 57.1221 13.9554V14.263C57.1221 15.3587 57.3477 16.2025 57.7988 16.7943C58.25 17.386 58.8945 17.6819 59.7324 17.6819ZM66.9658 10.4749C67.6865 9.59015 68.624 9.14777 69.7783 9.14777C71.7881 9.14777 72.8018 10.2816 72.8193 12.5491V18.8333H71.1934V12.5403C71.1875 11.8548 71.0293 11.348 70.7188 11.0198C70.4141 10.6917 69.9365 10.5276 69.2861 10.5276C68.7588 10.5276 68.2959 10.6683 67.8975 10.9495C67.499 11.2308 67.1885 11.5999 66.9658 12.0569V18.8333H65.3398V5.33331H66.9658V10.4749ZM79.2002 19.0091C77.9111 19.0091 76.8623 18.5872 76.0537 17.7435C75.2451 16.8939 74.8408 15.7601 74.8408 14.3421V14.0433C74.8408 13.0999 75.0195 12.2591 75.377 11.5208C75.7402 10.7767 76.2441 10.1966 76.8887 9.78058C77.5391 9.3587 78.2422 9.14777 78.998 9.14777C80.2344 9.14777 81.1953 9.55499 81.8809 10.3694C82.5664 11.1839 82.9092 12.3499 82.9092 13.8675V14.5443H76.4668C76.4902 15.4818 76.7627 16.2405 77.2842 16.8206C77.8115 17.3948 78.4795 17.6819 79.2881 17.6819C79.8623 17.6819 80.3486 17.5648 80.7471 17.3304C81.1455 17.096 81.4941 16.7855 81.793 16.3987L82.7861 17.1722C81.9893 18.3968 80.7939 19.0091 79.2002 19.0091ZM78.998 10.4837C78.3418 10.4837 77.791 10.7239 77.3457 11.2044C76.9004 11.679 76.625 12.347 76.5195 13.2083H81.2832V13.0853C81.2363 12.2591 81.0137 11.6204 80.6152 11.1693C80.2168 10.7122 79.6777 10.4837 78.998 10.4837ZM84.4033 13.9993C84.4033 12.5403 84.749 11.3685 85.4404 10.4837C86.1318 9.59308 87.0371 9.14777 88.1562 9.14777C89.2695 9.14777 90.1514 9.52863 90.8018 10.2903V5.33331H92.4277V18.8333H90.9336L90.8545 17.8138C90.2041 18.6107 89.2988 19.0091 88.1387 19.0091C87.0371 19.0091 86.1377 18.5579 85.4404 17.6556C84.749 16.7532 84.4033 15.5755 84.4033 14.1224V13.9993ZM86.0293 14.1839C86.0293 15.262 86.252 16.1058 86.6973 16.7151C87.1426 17.3245 87.7578 17.6292 88.543 17.6292C89.5742 17.6292 90.3271 17.1663 90.8018 16.2405V11.8724C90.3154 10.9759 89.5684 10.5276 88.5605 10.5276C87.7637 10.5276 87.1426 10.8353 86.6973 11.4505C86.252 12.0657 86.0293 12.9769 86.0293 14.1839ZM100.83 17.8929C100.197 18.637 99.2686 19.0091 98.0439 19.0091C97.0303 19.0091 96.2568 18.7161 95.7236 18.1302C95.1963 17.5384 94.9297 16.6653 94.9238 15.511V9.32355H96.5498V15.4671C96.5498 16.9085 97.1357 17.6292 98.3076 17.6292C99.5498 17.6292 100.376 17.1663 100.786 16.2405V9.32355H102.412V18.8333H100.865L100.83 17.8929ZM106.657 18.8333H105.031V5.33331H106.657V18.8333ZM113.214 19.0091C111.925 19.0091 110.876 18.5872 110.067 17.7435C109.259 16.8939 108.854 15.7601 108.854 14.3421V14.0433C108.854 13.0999 109.033 12.2591 109.391 11.5208C109.754 10.7767 110.258 10.1966 110.902 9.78058C111.553 9.3587 112.256 9.14777 113.012 9.14777C114.248 9.14777 115.209 9.55499 115.895 10.3694C116.58 11.1839 116.923 12.3499 116.923 13.8675V14.5443H110.48C110.504 15.4818 110.776 16.2405 111.298 16.8206C111.825 17.3948 112.493 17.6819 113.302 17.6819C113.876 17.6819 114.362 17.5648 114.761 17.3304C115.159 17.096 115.508 16.7855 115.807 16.3987L116.8 17.1722C116.003 18.3968 114.808 19.0091 113.214 19.0091ZM113.012 10.4837C112.355 10.4837 111.805 10.7239 111.359 11.2044C110.914 11.679 110.639 12.347 110.533 13.2083H115.297V13.0853C115.25 12.2591 115.027 11.6204 114.629 11.1693C114.23 10.7122 113.691 10.4837 113.012 10.4837Z" fill="white"/>
</g>
<defs>
<clipPath id="clip0">
<rect width="118" height="24" fill="white" transform="translate(0 0.333313)"/>
</clipPath>
<clipPath id="clip1">
<rect width="24" height="24" fill="white" transform="translate(0 0.333313)"/>
</clipPath>
</defs>
</svg>
