<svg width="132" height="24" viewBox="0 0 132 24" fill="none" xmlns="http://www.w3.org/2000/svg">
<path d="M2.41667 10.3333H8.66667M8.66667 10.3333H21.5833M8.66667 10.3333V21.5833M5.33333 22H18.6667C20.5076 22 22 20.5076 22 18.6667V5.33333C22 3.49238 20.5076 2 18.6667 2H5.33333C3.49238 2 2 3.49238 2 5.33333V18.6667C2 20.5076 3.49238 22 5.33333 22Z" stroke="white" stroke-width="2"/>
<path d="M45.4854 18.5V5.70312H49.0977C50.2109 5.70312 51.1953 5.94922 52.0508 6.44141C52.9062 6.93359 53.5654 7.63379 54.0283 8.54199C54.4971 9.4502 54.7344 10.4932 54.7402 11.6709V12.4883C54.7402 13.6953 54.5059 14.7529 54.0371 15.6611C53.5742 16.5693 52.9092 17.2666 52.042 17.7529C51.1807 18.2393 50.1758 18.4883 49.0273 18.5H45.4854ZM47.1729 7.0918V17.1201H48.9482C50.249 17.1201 51.2598 16.7158 51.9805 15.9072C52.707 15.0986 53.0703 13.9473 53.0703 12.4531V11.7061C53.0703 10.2529 52.7275 9.125 52.042 8.32227C51.3623 7.51367 50.3955 7.10352 49.1416 7.0918H47.1729ZM62.9141 18.5C62.8203 18.3125 62.7441 17.9785 62.6855 17.498C61.9297 18.2832 61.0273 18.6758 59.9785 18.6758C59.041 18.6758 58.2705 18.4121 57.667 17.8848C57.0693 17.3516 56.7705 16.6777 56.7705 15.8633C56.7705 14.873 57.1455 14.1055 57.8955 13.5605C58.6514 13.0098 59.7119 12.7344 61.0771 12.7344H62.6592V11.9873C62.6592 11.4189 62.4893 10.9678 62.1494 10.6338C61.8096 10.2939 61.3086 10.124 60.6465 10.124C60.0664 10.124 59.5801 10.2705 59.1875 10.5635C58.7949 10.8564 58.5986 11.2109 58.5986 11.627H56.9639C56.9639 11.1523 57.1309 10.6953 57.4648 10.2559C57.8047 9.81055 58.2617 9.45898 58.8359 9.20117C59.416 8.94336 60.0518 8.81445 60.7432 8.81445C61.8389 8.81445 62.6973 9.08984 63.3184 9.64062C63.9395 10.1855 64.2617 10.9385 64.2852 11.8994V16.2764C64.2852 17.1494 64.3965 17.8438 64.6191 18.3594V18.5H62.9141ZM60.2158 17.2607C60.7256 17.2607 61.209 17.1289 61.666 16.8652C62.123 16.6016 62.4541 16.2588 62.6592 15.8369V13.8857H61.3848C59.3926 13.8857 58.3965 14.4688 58.3965 15.6348C58.3965 16.1445 58.5664 16.543 58.9062 16.8301C59.2461 17.1172 59.6826 17.2607 60.2158 17.2607ZM72.3711 15.9775C72.3711 15.5381 72.2041 15.1982 71.8701 14.958C71.542 14.7119 70.9648 14.501 70.1387 14.3252C69.3184 14.1494 68.665 13.9385 68.1787 13.6924C67.6982 13.4463 67.3408 13.1533 67.1064 12.8135C66.8779 12.4736 66.7637 12.0693 66.7637 11.6006C66.7637 10.8213 67.0918 10.1621 67.748 9.62305C68.4102 9.08398 69.2539 8.81445 70.2793 8.81445C71.3574 8.81445 72.2305 9.09277 72.8984 9.64941C73.5723 10.2061 73.9092 10.918 73.9092 11.7852H72.2744C72.2744 11.3398 72.084 10.9561 71.7031 10.6338C71.3281 10.3115 70.8535 10.1504 70.2793 10.1504C69.6875 10.1504 69.2246 10.2793 68.8906 10.5371C68.5566 10.7949 68.3896 11.1318 68.3896 11.5479C68.3896 11.9404 68.5449 12.2363 68.8555 12.4355C69.166 12.6348 69.7256 12.8252 70.5342 13.0068C71.3486 13.1885 72.0078 13.4053 72.5117 13.6572C73.0156 13.9092 73.3877 14.2139 73.6279 14.5713C73.874 14.9229 73.9971 15.3535 73.9971 15.8633C73.9971 16.7129 73.6572 17.3955 72.9775 17.9111C72.2979 18.4209 71.416 18.6758 70.332 18.6758C69.5703 18.6758 68.8965 18.541 68.3105 18.2715C67.7246 18.002 67.2646 17.627 66.9307 17.1465C66.6025 16.6602 66.4385 16.1357 66.4385 15.5732H68.0645C68.0938 16.1182 68.3105 16.5518 68.7148 16.874C69.125 17.1904 69.6641 17.3486 70.332 17.3486C70.9473 17.3486 71.4395 17.2256 71.8086 16.9795C72.1836 16.7275 72.3711 16.3936 72.3711 15.9775ZM77.7412 10.1416C78.4619 9.25684 79.3994 8.81445 80.5537 8.81445C82.5635 8.81445 83.5771 9.94824 83.5947 12.2158V18.5H81.9688V12.207C81.9629 11.5215 81.8047 11.0146 81.4941 10.6865C81.1895 10.3584 80.7119 10.1943 80.0615 10.1943C79.5342 10.1943 79.0713 10.335 78.6729 10.6162C78.2744 10.8975 77.9639 11.2666 77.7412 11.7236V18.5H76.1152V5H77.7412V10.1416ZM94.0801 13.8506C94.0801 15.3037 93.7461 16.4727 93.0781 17.3574C92.4102 18.2363 91.5137 18.6758 90.3887 18.6758C89.1875 18.6758 88.2588 18.251 87.6025 17.4014L87.5234 18.5H86.0293V5H87.6553V10.0361C88.3115 9.22168 89.2168 8.81445 90.3711 8.81445C91.5254 8.81445 92.4307 9.25098 93.0869 10.124C93.749 10.9971 94.0801 12.1924 94.0801 13.71V13.8506ZM92.4541 13.666C92.4541 12.5586 92.2402 11.7031 91.8125 11.0996C91.3848 10.4961 90.7695 10.1943 89.9668 10.1943C88.8945 10.1943 88.124 10.6924 87.6553 11.6885V15.8018C88.1533 16.7979 88.9297 17.2959 89.9844 17.2959C90.7637 17.2959 91.3701 16.9941 91.8037 16.3906C92.2373 15.7871 92.4541 14.8789 92.4541 13.666ZM95.7061 13.6572C95.7061 12.7256 95.8877 11.8877 96.251 11.1436C96.6201 10.3994 97.1299 9.8252 97.7803 9.4209C98.4365 9.0166 99.1836 8.81445 100.021 8.81445C101.316 8.81445 102.362 9.2627 103.159 10.1592C103.962 11.0557 104.363 12.248 104.363 13.7363V13.8506C104.363 14.7764 104.185 15.6084 103.827 16.3467C103.476 17.0791 102.969 17.6504 102.307 18.0605C101.65 18.4707 100.895 18.6758 100.039 18.6758C98.75 18.6758 97.7041 18.2275 96.9014 17.3311C96.1045 16.4346 95.7061 15.248 95.7061 13.7715V13.6572ZM97.3408 13.8506C97.3408 14.9053 97.584 15.752 98.0703 16.3906C98.5625 17.0293 99.2188 17.3486 100.039 17.3486C100.865 17.3486 101.521 17.0264 102.008 16.3818C102.494 15.7314 102.737 14.8232 102.737 13.6572C102.737 12.6143 102.488 11.7705 101.99 11.126C101.498 10.4756 100.842 10.1504 100.021 10.1504C99.2188 10.1504 98.5713 10.4697 98.0791 11.1084C97.5869 11.7471 97.3408 12.6611 97.3408 13.8506ZM112.273 18.5C112.18 18.3125 112.104 17.9785 112.045 17.498C111.289 18.2832 110.387 18.6758 109.338 18.6758C108.4 18.6758 107.63 18.4121 107.026 17.8848C106.429 17.3516 106.13 16.6777 106.13 15.8633C106.13 14.873 106.505 14.1055 107.255 13.5605C108.011 13.0098 109.071 12.7344 110.437 12.7344H112.019V11.9873C112.019 11.4189 111.849 10.9678 111.509 10.6338C111.169 10.2939 110.668 10.124 110.006 10.124C109.426 10.124 108.939 10.2705 108.547 10.5635C108.154 10.8564 107.958 11.2109 107.958 11.627H106.323C106.323 11.1523 106.49 10.6953 106.824 10.2559C107.164 9.81055 107.621 9.45898 108.195 9.20117C108.775 8.94336 109.411 8.81445 110.103 8.81445C111.198 8.81445 112.057 9.08984 112.678 9.64062C113.299 10.1855 113.621 10.9385 113.645 11.8994V16.2764C113.645 17.1494 113.756 17.8438 113.979 18.3594V18.5H112.273ZM109.575 17.2607C110.085 17.2607 110.568 17.1289 111.025 16.8652C111.482 16.6016 111.813 16.2588 112.019 15.8369V13.8857H110.744C108.752 13.8857 107.756 14.4688 107.756 15.6348C107.756 16.1445 107.926 16.543 108.266 16.8301C108.605 17.1172 109.042 17.2607 109.575 17.2607ZM120.79 10.4492C120.544 10.4082 120.277 10.3877 119.99 10.3877C118.924 10.3877 118.2 10.8418 117.819 11.75V18.5H116.193V8.99023H117.775L117.802 10.0889C118.335 9.23926 119.091 8.81445 120.069 8.81445C120.386 8.81445 120.626 8.85547 120.79 8.9375V10.4492ZM121.722 13.666C121.722 12.207 122.067 11.0352 122.759 10.1504C123.45 9.25977 124.355 8.81445 125.475 8.81445C126.588 8.81445 127.47 9.19531 128.12 9.95703V5H129.746V18.5H128.252L128.173 17.4805C127.522 18.2773 126.617 18.6758 125.457 18.6758C124.355 18.6758 123.456 18.2246 122.759 17.3223C122.067 16.4199 121.722 15.2422 121.722 13.7891V13.666ZM123.348 13.8506C123.348 14.9287 123.57 15.7725 124.016 16.3818C124.461 16.9912 125.076 17.2959 125.861 17.2959C126.893 17.2959 127.646 16.833 128.12 15.9072V11.5391C127.634 10.6426 126.887 10.1943 125.879 10.1943C125.082 10.1943 124.461 10.502 124.016 11.1172C123.57 11.7324 123.348 12.6436 123.348 13.8506Z" fill="white"/>
</svg>
