<svg width="24" height="25" viewBox="0 0 24 25" fill="none" xmlns="http://www.w3.org/2000/svg">
<g clip-path="url(#clip0)">
<path d="M21.75 3.33333H2.25C1.00781 3.33333 0 4.34114 0 5.58333V19.0833C0 20.3255 1.00781 21.3333 2.25 21.3333H21.75C22.9922 21.3333 24 20.3255 24 19.0833V5.58333C24 4.34114 22.9922 3.33333 21.75 3.33333ZM2.25 4.83333H21.75C22.1625 4.83333 22.5 5.17083 22.5 5.58333V7.52395C21.4734 8.39114 20.0063 9.58645 15.4406 13.2099C14.6484 13.838 13.0875 15.3521 12 15.3333C10.9125 15.3521 9.34688 13.838 8.55938 13.2099C3.99375 9.58645 2.52656 8.39114 1.5 7.52395V5.58333C1.5 5.17083 1.8375 4.83333 2.25 4.83333ZM21.75 19.8333H2.25C1.8375 19.8333 1.5 19.4958 1.5 19.0833V9.47395C2.56875 10.3505 4.25625 11.7052 7.62656 14.3818C8.5875 15.1505 10.2844 16.8427 12 16.8333C13.7063 16.8474 15.3891 15.1693 16.3734 14.3818C19.7437 11.7052 21.4312 10.3505 22.5 9.47395V19.0833C22.5 19.4958 22.1625 19.8333 21.75 19.8333Z" fill="white"/>
</g>
<defs>
<clipPath id="clip0">
<rect width="24" height="24" fill="white" transform="translate(0 0.333328)"/>
</clipPath>
</defs>
</svg>
