<svg width="24" height="25" viewBox="0 0 24 25" fill="none" xmlns="http://www.w3.org/2000/svg">
<g clip-path="url(#clip0)">
<path d="M12 4.83331C9.51868 4.83331 7.5 6.85199 7.5 9.33332C7.5 11.8146 9.51868 13.8333 12 13.8333C14.4813 13.8333 16.5 11.8146 16.5 9.33332C16.5 6.85199 14.4813 4.83331 12 4.83331ZM12 12.3333C10.3458 12.3333 9 10.9875 9 9.33332C9 7.6791 10.3458 6.33332 12 6.33332C13.6542 6.33332 15 7.6791 15 9.33332C15 10.9875 13.6542 12.3333 12 12.3333ZM12 0.333313C7.02942 0.333313 3 4.36274 3 9.33332C3 12.9621 4.26422 13.9754 11.0751 23.8491C11.522 24.4947 12.478 24.4948 12.925 23.8491C19.7358 13.9754 21 12.9621 21 9.33332C21 4.36274 16.9706 0.333313 12 0.333313ZM12 22.5488C5.47055 13.1062 4.5 12.3565 4.5 9.33332C4.5 7.32997 5.28014 5.44658 6.69671 4.03002C8.11327 2.61345 9.99666 1.83331 12 1.83331C14.0034 1.83331 15.8867 2.61345 17.3033 4.03002C18.7199 5.44658 19.5 7.32997 19.5 9.33332C19.5 12.3563 18.5301 13.1054 12 22.5488Z" fill="white"/>
</g>
<defs>
<clipPath id="clip0">
<rect width="24" height="24" fill="white" transform="translate(0 0.333313)"/>
</clipPath>
</defs>
</svg>
