<svg width="24" height="25" viewBox="0 0 24 25" fill="none" xmlns="http://www.w3.org/2000/svg">
<g clip-path="url(#clip0)">
<g clip-path="url(#clip1)">
<path d="M20.75 3.33331H18.5V0.895813C18.5 0.586438 18.2469 0.333313 17.9375 0.333313H17.5625C17.2531 0.333313 17 0.586438 17 0.895813V3.33331H8V0.895813C8 0.586438 7.74687 0.333313 7.4375 0.333313H7.0625C6.75313 0.333313 6.5 0.586438 6.5 0.895813V3.33331H4.25C3.00781 3.33331 2 4.34113 2 5.58331V22.0833C2 23.3255 3.00781 24.3333 4.25 24.3333H20.75C21.9922 24.3333 23 23.3255 23 22.0833V5.58331C23 4.34113 21.9922 3.33331 20.75 3.33331ZM4.25 4.83331H20.75C21.1625 4.83331 21.5 5.17081 21.5 5.58331V7.83331H3.5V5.58331C3.5 5.17081 3.8375 4.83331 4.25 4.83331ZM20.75 22.8333H4.25C3.8375 22.8333 3.5 22.4958 3.5 22.0833V9.33331H21.5V22.0833C21.5 22.4958 21.1625 22.8333 20.75 22.8333ZM8.9375 15.3333H7.0625C6.75313 15.3333 6.5 15.0802 6.5 14.7708V12.8958C6.5 12.5864 6.75313 12.3333 7.0625 12.3333H8.9375C9.24687 12.3333 9.5 12.5864 9.5 12.8958V14.7708C9.5 15.0802 9.24687 15.3333 8.9375 15.3333ZM13.4375 15.3333H11.5625C11.2531 15.3333 11 15.0802 11 14.7708V12.8958C11 12.5864 11.2531 12.3333 11.5625 12.3333H13.4375C13.7469 12.3333 14 12.5864 14 12.8958V14.7708C14 15.0802 13.7469 15.3333 13.4375 15.3333ZM17.9375 15.3333H16.0625C15.7531 15.3333 15.5 15.0802 15.5 14.7708V12.8958C15.5 12.5864 15.7531 12.3333 16.0625 12.3333H17.9375C18.2469 12.3333 18.5 12.5864 18.5 12.8958V14.7708C18.5 15.0802 18.2469 15.3333 17.9375 15.3333ZM13.4375 19.8333H11.5625C11.2531 19.8333 11 19.5802 11 19.2708V17.3958C11 17.0864 11.2531 16.8333 11.5625 16.8333H13.4375C13.7469 16.8333 14 17.0864 14 17.3958V19.2708C14 19.5802 13.7469 19.8333 13.4375 19.8333ZM8.9375 19.8333H7.0625C6.75313 19.8333 6.5 19.5802 6.5 19.2708V17.3958C6.5 17.0864 6.75313 16.8333 7.0625 16.8333H8.9375C9.24687 16.8333 9.5 17.0864 9.5 17.3958V19.2708C9.5 19.5802 9.24687 19.8333 8.9375 19.8333ZM17.9375 19.8333H16.0625C15.7531 19.8333 15.5 19.5802 15.5 19.2708V17.3958C15.5 17.0864 15.7531 16.8333 16.0625 16.8333H17.9375C18.2469 16.8333 18.5 17.0864 18.5 17.3958V19.2708C18.5 19.5802 18.2469 19.8333 17.9375 19.8333Z" fill="white"/>
</g>
</g>
<defs>
<clipPath id="clip0">
<rect width="24" height="24" fill="white" transform="translate(0 0.333313)"/>
</clipPath>
<clipPath id="clip1">
<rect width="24" height="24" fill="white" transform="translate(0 0.333313)"/>
</clipPath>
</defs>
</svg>
