<svg width="24" height="25" viewBox="0 0 24 25" fill="none" xmlns="http://www.w3.org/2000/svg">
<g clip-path="url(#clip0)">
<g clip-path="url(#clip1)">
<path d="M16.125 11.5833H10.875C10.6687 11.5833 10.5 11.7521 10.5 11.9583V12.7083C10.5 12.9146 10.6687 13.0833 10.875 13.0833H16.125C16.3313 13.0833 16.5 12.9146 16.5 12.7083V11.9583C16.5 11.7521 16.3313 11.5833 16.125 11.5833ZM16.125 16.0833H10.875C10.6687 16.0833 10.5 16.2521 10.5 16.4583V17.2083C10.5 17.4146 10.6687 17.5833 10.875 17.5833H16.125C16.3313 17.5833 16.5 17.4146 16.5 17.2083V16.4583C16.5 16.2521 16.3313 16.0833 16.125 16.0833ZM8.25 11.2083C7.62656 11.2083 7.125 11.7099 7.125 12.3333C7.125 12.9568 7.62656 13.4583 8.25 13.4583C8.87344 13.4583 9.375 12.9568 9.375 12.3333C9.375 11.7099 8.87344 11.2083 8.25 11.2083ZM8.25 15.7083C7.62656 15.7083 7.125 16.2099 7.125 16.8333C7.125 17.4568 7.62656 17.9583 8.25 17.9583C8.87344 17.9583 9.375 17.4568 9.375 16.8333C9.375 16.2099 8.87344 15.7083 8.25 15.7083ZM18.75 3.33331H14.5969C14.6156 3.21144 14.625 3.08488 14.625 2.95831C14.625 1.50988 13.4484 0.333313 12 0.333313C10.5516 0.333313 9.375 1.50988 9.375 2.95831C9.375 3.08488 9.38438 3.21144 9.40313 3.33331H5.25C4.00781 3.33331 3 4.34113 3 5.58331V22.0833C3 23.3255 4.00781 24.3333 5.25 24.3333H18.75C19.9922 24.3333 21 23.3255 21 22.0833V5.58331C21 4.34113 19.9922 3.33331 18.75 3.33331ZM12 1.83331C12.6234 1.83331 13.125 2.33488 13.125 2.95831C13.125 3.58175 12.6234 4.08331 12 4.08331C11.3766 4.08331 10.875 3.58175 10.875 2.95831C10.875 2.33488 11.3766 1.83331 12 1.83331ZM19.5 22.0833C19.5 22.4958 19.1625 22.8333 18.75 22.8333H5.25C4.8375 22.8333 4.5 22.4958 4.5 22.0833V5.58331C4.5 5.17081 4.8375 4.83331 5.25 4.83331H7.5V5.77081C7.5 6.08019 7.75313 6.33331 8.0625 6.33331H15.9375C16.2469 6.33331 16.5 6.08019 16.5 5.77081V4.83331H18.75C19.1625 4.83331 19.5 5.17081 19.5 5.58331V22.0833Z" fill="white"/>
</g>
</g>
<defs>
<clipPath id="clip0">
<rect width="24" height="24" fill="white" transform="translate(0 0.333313)"/>
</clipPath>
<clipPath id="clip1">
<rect width="24" height="24" fill="white" transform="translate(0 0.333313)"/>
</clipPath>
</defs>
</svg>
